<svg width="17" height="18" viewBox="0 0 17 18" fill="none" xmlns="http://www.w3.org/2000/svg">
<path fill-rule="evenodd" clip-rule="evenodd" d="M5.23856 16.9168H12.1951C14.7504 16.9168 16.7107 15.9939 16.1539 12.2791L15.5055 7.24481C15.1623 5.39127 13.98 4.68188 12.9426 4.68188H4.46053C3.40789 4.68188 2.29424 5.44466 1.8976 7.24481L1.24924 12.2791C0.776315 15.5743 2.68326 16.9168 5.23856 16.9168Z" stroke="#080E39" stroke-width="1.5" stroke-linecap="round" stroke-linejoin="round"/>
<path d="M5.12415 4.49878C5.12415 2.51038 6.73606 0.89847 8.72445 0.89847V0.89847C9.68195 0.894413 10.6016 1.27194 11.2801 1.94757C11.9586 2.62319 12.34 3.54127 12.34 4.49878V4.49878" stroke="#080E39" stroke-width="1.5" stroke-linecap="round" stroke-linejoin="round"/>
<path d="M6.25305 8.25175H6.29118" stroke="#080E39" stroke-width="1.5" stroke-linecap="round" stroke-linejoin="round"/>
<path d="M11.1119 8.25175H11.1501" stroke="#080E39" stroke-width="1.5" stroke-linecap="round" stroke-linejoin="round"/>
</svg>
