<svg width="181" height="186" viewBox="0 0 181 186" fill="none" xmlns="http://www.w3.org/2000/svg">
<path fill-rule="evenodd" clip-rule="evenodd" d="M166.836 99.9857C163.367 87.8881 150.607 80.933 138.337 84.4515C126.066 87.97 118.931 100.63 122.4 112.727C125.869 124.825 138.629 131.78 150.899 128.262C163.17 124.743 170.305 112.083 166.836 99.9857Z" fill="#4E5D78"/>
<path fill-rule="evenodd" clip-rule="evenodd" d="M152.946 52.9438L128.274 158.23L51.5567 82.0167L152.946 52.9438Z" fill="#FFF2FA"/>
<path fill-rule="evenodd" clip-rule="evenodd" d="M50.588 81.8651L153.229 52.4333L128.649 160.402L50.588 81.8651ZM52.4671 82.3567L128.085 158.436L151.896 53.8459L52.4671 82.3567Z" fill="#4E5D78"/>
<path fill-rule="evenodd" clip-rule="evenodd" d="M138.087 83.3051C150.53 79.7371 163.43 86.652 166.899 98.7496C170.368 110.847 163.092 123.547 150.649 127.115C138.206 130.683 125.306 123.768 121.837 111.671C118.368 99.5733 125.643 86.8731 138.087 83.3051ZM150.383 126.187C162.299 122.77 169.266 110.608 165.944 99.0232C162.622 87.4382 150.269 80.8163 138.353 84.2331C126.437 87.65 119.47 99.812 122.791 111.397C126.113 122.982 138.467 129.604 150.383 126.187Z" fill="#4E5D78"/>
<path d="M42.2088 171.856L43.0712 172.334L138.122 0.85724L137.26 0.379199L42.2088 171.856Z" fill="#4E5D78"/>
<path fill-rule="evenodd" clip-rule="evenodd" d="M81.5647 139.599C83.8118 138.955 86.1154 140.113 86.7101 142.187C87.3048 144.261 85.9654 146.465 83.7183 147.109C81.472 147.753 79.1686 146.594 78.5739 144.52C77.9793 142.447 79.3185 140.243 81.5647 139.599ZM83.4547 146.19C85.1517 145.704 86.1632 144.039 85.7141 142.473C85.265 140.907 83.5253 140.032 81.8283 140.518C80.1322 141.005 79.1208 142.669 79.5699 144.235C80.019 145.801 81.7585 146.677 83.4547 146.19Z" fill="#4E5D78"/>
<path fill-rule="evenodd" clip-rule="evenodd" d="M100.256 67.6278L77.5863 108.672L50.8132 81.8053L100.256 67.6278ZM98.2434 69.2323L52.6913 82.2942L77.3575 107.046L98.2434 69.2323Z" fill="#4E5D78"/>
<path d="M22.2583 117.362L33.1473 144.072L34.0788 143.7L23.5868 117.963L48.5346 110.109L28.9502 89.358L48.3746 66.7144L47.6104 66.0971L27.6197 89.401L46.7359 109.656L22.2583 117.362Z" fill="#4E5D78"/>
<path fill-rule="evenodd" clip-rule="evenodd" d="M83.2905 44.035C81.7047 38.5046 76.076 35.2666 70.7188 36.8028C65.3605 38.3392 62.3031 44.068 63.8889 49.5983C65.4747 55.1287 71.1033 58.3667 76.4616 56.8303C81.8188 55.2941 84.8763 49.5653 83.2905 44.035Z" fill="#4E5D78"/>
</svg>
