<svg viewBox="0 0 14 14" fill="none" xmlns="http://www.w3.org/2000/svg">
<path d="M7.00001 3.79548C5.22657 3.79548 3.79533 5.22673 3.79533 7.00017C3.79533 8.77361 5.22657 10.2049 7.00001 10.2049C8.77345 10.2049 10.2047 8.77361 10.2047 7.00017C10.2047 5.22673 8.77345 3.79548 7.00001 3.79548ZM7.00001 9.08298C5.85314 9.08298 4.9172 8.14705 4.9172 7.00017C4.9172 5.8533 5.85314 4.91736 7.00001 4.91736C8.14689 4.91736 9.08282 5.8533 9.08282 7.00017C9.08282 8.14705 8.14689 9.08298 7.00001 9.08298ZM10.3359 2.91736C9.92189 2.91736 9.58751 3.25173 9.58751 3.6658C9.58751 4.07986 9.92189 4.41423 10.3359 4.41423C10.75 4.41423 11.0844 4.08142 11.0844 3.6658C11.0845 3.56748 11.0652 3.4701 11.0277 3.37924C10.9901 3.28838 10.935 3.20582 10.8654 3.1363C10.7959 3.06677 10.7134 3.01165 10.6225 2.97408C10.5316 2.93651 10.4343 2.91724 10.3359 2.91736ZM13.2469 7.00017C13.2469 6.13767 13.2547 5.28298 13.2063 4.42205C13.1578 3.42205 12.9297 2.53455 12.1984 1.8033C11.4656 1.07048 10.5797 0.843922 9.5797 0.795484C8.7172 0.747047 7.86251 0.754859 7.00157 0.754859C6.13907 0.754859 5.28439 0.747047 4.42345 0.795484C3.42345 0.843922 2.53595 1.07205 1.8047 1.8033C1.07189 2.53611 0.845326 3.42205 0.796888 4.42205C0.748451 5.28455 0.756263 6.13923 0.756263 7.00017C0.756263 7.86111 0.748451 8.71736 0.796888 9.5783C0.845326 10.5783 1.07345 11.4658 1.8047 12.197C2.53751 12.9299 3.42345 13.1564 4.42345 13.2049C5.28595 13.2533 6.14064 13.2455 7.00157 13.2455C7.86407 13.2455 8.71876 13.2533 9.5797 13.2049C10.5797 13.1564 11.4672 12.9283 12.1984 12.197C12.9313 11.4642 13.1578 10.5783 13.2063 9.5783C13.2563 8.71736 13.2469 7.86267 13.2469 7.00017ZM11.8719 10.6845C11.7578 10.9689 11.6203 11.1814 11.4 11.4002C11.1797 11.6205 10.9688 11.758 10.6844 11.872C9.86251 12.1986 7.91095 12.1252 7.00001 12.1252C6.08907 12.1252 4.13595 12.1986 3.31408 11.8736C3.0297 11.7595 2.8172 11.622 2.59845 11.4017C2.37814 11.1814 2.24064 10.9705 2.12658 10.6861C1.80158 9.86267 1.87501 7.91111 1.87501 7.00017C1.87501 6.08923 1.80158 4.13611 2.12658 3.31423C2.24064 3.02986 2.37814 2.81736 2.59845 2.59861C2.81876 2.37986 3.0297 2.2408 3.31408 2.12673C4.13595 1.80173 6.08907 1.87517 7.00001 1.87517C7.91095 1.87517 9.86407 1.80173 10.6859 2.12673C10.9703 2.2408 11.1828 2.3783 11.4016 2.59861C11.6219 2.81892 11.7594 3.02986 11.8734 3.31423C12.1984 4.13611 12.125 6.08923 12.125 7.00017C12.125 7.91111 12.1984 9.86267 11.8719 10.6845Z" fill="#4E5D78"/>
</svg>
