<svg width="14" height="16" viewBox="0 0 14 16" fill="none" xmlns="http://www.w3.org/2000/svg">
<path fill-rule="evenodd" clip-rule="evenodd" d="M7.96899 14.702C9.74321 13.4603 13.3333 10.5136 13.3333 7.00008C13.3333 3.50228 10.4978 0.666748 7 0.666748C3.5022 0.666748 0.666672 3.50228 0.666672 7.00008C0.666672 10.5136 4.2568 13.4603 6.03102 14.702C6.61783 15.1127 7.38218 15.1127 7.96899 14.702ZM7.00001 9.00009C8.10458 9.00009 9.00001 8.10466 9.00001 7.00009C9.00001 5.89552 8.10458 5.00009 7.00001 5.00009C5.89544 5.00009 5.00001 5.89552 5.00001 7.00009C5.00001 8.10466 5.89544 9.00009 7.00001 9.00009Z" fill="#D03090"/>
</svg>
