<svg width="14" height="14" viewBox="0 0 14 14" fill="none" xmlns="http://www.w3.org/2000/svg">
<path d="M11.1112 8.58606C10.6634 8.48973 10.3092 8.69763 9.99549 8.8792C9.67426 9.06632 9.06343 9.56183 8.7133 9.43501C6.92072 8.69694 5.23475 7.12794 4.50492 5.32817C4.37629 4.97057 4.86949 4.35586 5.05522 4.03083C5.23544 3.7162 5.43905 3.35861 5.34618 2.90745C5.26226 2.50203 4.17681 1.12084 3.79298 0.743148C3.53984 0.49366 3.28051 0.356442 3.01431 0.334266C2.01346 0.291298 0.895673 1.62675 0.69963 1.94623C0.208492 2.62747 0.211243 3.53394 0.707884 4.63307C1.90478 7.58534 6.43164 12.0408 9.39498 13.2827C9.94184 13.5384 10.4419 13.6666 10.8911 13.6666C11.3306 13.6666 11.722 13.5439 12.0584 13.3007C12.3122 13.1544 13.7024 11.9812 13.666 10.9534C13.6439 10.6915 13.5071 10.4295 13.2608 10.1758C12.8859 9.78845 11.5136 8.6706 11.1112 8.58606Z" fill="#D03090"/>
</svg>
