<svg width="50" height="32" viewBox="0 0 50 32" fill="none" xmlns="http://www.w3.org/2000/svg">
<g opacity="0.5" clip-path="url(#clip0)">
<path d="M36.9319 22.6153C36.1365 25.3291 34.4319 27.4775 33.1819 28.6082C32.5001 29.2867 32.3865 30.4174 33.0683 31.2089L33.2956 31.4351C33.8637 32.0004 34.7728 32.2266 35.4547 31.8874C50.341 24.0852 50.1137 13.6824 50.0001 11.9863C50.0001 11.7602 50.0001 11.6471 50.0001 11.4209C50.0001 5.20186 44.8865 0.113516 38.6365 0.113516C32.3865 0.113516 27.2728 5.20186 27.2728 11.4209C27.1592 17.0746 31.4774 21.8238 36.9319 22.6153Z" fill="#D03090"/>
<path d="M9.77272 22.6149C9.0909 25.3287 7.38636 27.364 6.13636 28.6078C5.45454 29.2863 5.3409 30.417 6.02272 31.2085L6.24999 31.4347C6.81817 32.0001 7.72726 32.2262 8.40908 31.7739C23.1818 24.0849 22.9545 13.682 22.8409 11.9859C22.8409 11.7598 22.8409 11.6467 22.8409 11.4206C22.8409 5.20148 17.7273 0.113138 11.4773 0.113138C5.22726 0.113138 0.113625 5.20148 0.113625 11.4206C-1.14441e-05 17.0743 4.31817 21.8234 9.77272 22.6149Z" fill="#D03090"/>
</g>
<defs>
<clipPath id="clip0">
<rect width="50" height="32" fill="white" transform="translate(50 32) rotate(-180)"/>
</clipPath>
</defs>
</svg>
