<svg width="16" height="16" viewBox="0 0 16 16" fill="none" xmlns="http://www.w3.org/2000/svg">
<path d="M4.05435 9.54663C4.22701 9.71396 4.30635 9.95596 4.26701 10.1933L3.67435 13.4733C3.62435 13.7513 3.74168 14.0326 3.97435 14.1933C4.20235 14.36 4.50568 14.38 4.75435 14.2466L7.70701 12.7066C7.80968 12.652 7.92368 12.6226 8.04035 12.6193H8.22101C8.28368 12.6286 8.34501 12.6486 8.40101 12.6793L11.3543 14.2266C11.5003 14.3 11.6657 14.326 11.8277 14.3C12.2223 14.2253 12.4857 13.8493 12.421 13.4526L11.8277 10.1726C11.7883 9.93329 11.8677 9.68996 12.0403 9.51996L14.4477 7.18663C14.649 6.99129 14.719 6.69796 14.627 6.43329C14.5377 6.16929 14.3097 5.97663 14.0343 5.93329L10.721 5.45263C10.469 5.42663 10.2477 5.27329 10.1343 5.04663L8.67435 2.05329C8.63968 1.98663 8.59501 1.92529 8.54101 1.87329L8.48101 1.82663C8.44968 1.79196 8.41368 1.76329 8.37368 1.73996L8.30101 1.71329L8.18768 1.66663H7.90701C7.65635 1.69263 7.43568 1.84263 7.32035 2.06663L5.84101 5.04663C5.73435 5.26463 5.52701 5.41596 5.28768 5.45263L1.97435 5.93329C1.69435 5.97329 1.46035 6.16663 1.36768 6.43329C1.28035 6.70063 1.35568 6.99396 1.56101 7.18663L4.05435 9.54663Z" fill="#E6C03B"/>
</svg>
