<svg viewBox="0 0 14 12" fill="none" xmlns="http://www.w3.org/2000/svg">
<path d="M13.5 1.97344C13.0219 2.17969 12.5015 2.32813 11.9656 2.38594C12.522 2.05537 12.9387 1.53313 13.1375 0.917194C12.6153 1.2278 12.0433 1.44561 11.4468 1.56094C11.1975 1.29442 10.896 1.0821 10.5611 0.937206C10.2261 0.792311 9.86492 0.71795 9.49998 0.718756C8.02341 0.718756 6.83591 1.91563 6.83591 3.38438C6.83591 3.59063 6.86091 3.79688 6.90154 3.99532C4.6906 3.87969 2.71873 2.82344 1.40779 1.20626C1.16892 1.61425 1.04375 2.0788 1.04529 2.55157C1.04529 3.47657 1.5156 4.29219 2.23279 4.77188C1.81014 4.75524 1.39739 4.63907 1.0281 4.43282V4.46563C1.0281 5.76094 1.94373 6.83438 3.16404 7.08126C2.93491 7.14077 2.69921 7.17122 2.46248 7.17188C2.28904 7.17188 2.12498 7.15469 1.95935 7.13126C2.29685 8.18751 3.27966 8.95469 4.44998 8.97969C3.53435 9.69688 2.38748 10.1188 1.14216 10.1188C0.918726 10.1188 0.712476 10.1109 0.498413 10.0859C1.67966 10.8438 3.08123 11.2813 4.5906 11.2813C9.4906 11.2813 12.1719 7.22188 12.1719 3.69844C12.1719 3.58282 12.1719 3.46719 12.164 3.35157C12.6828 2.97188 13.1375 2.50157 13.5 1.97344Z" fill="#4E5D78"/>
</svg>
