<svg width="14" height="14" viewBox="0 0 14 14" fill="none" xmlns="http://www.w3.org/2000/svg">
<path d="M9.90666 8.3335C9.96 7.8935 10 7.4535 10 7.00016C10 6.54683 9.96 6.10683 9.90666 5.66683H12.16C12.2667 6.0935 12.3333 6.54016 12.3333 7.00016C12.3333 7.46016 12.2667 7.90683 12.16 8.3335H9.90666ZM8.72666 12.0402C9.12666 11.3002 9.43333 10.5002 9.64666 9.66683H11.6133C10.9674 10.779 9.94274 11.6215 8.72666 12.0402ZM8.56 8.3335H5.44C5.37333 7.8935 5.33333 7.4535 5.33333 7.00016C5.33333 6.54683 5.37333 6.10016 5.44 5.66683H8.56C8.62 6.10016 8.66666 6.54683 8.66666 7.00016C8.66666 7.4535 8.62 7.8935 8.56 8.3335ZM7 12.3068C6.44666 11.5068 6 10.6202 5.72666 9.66683H8.27333C8 10.6202 7.55333 11.5068 7 12.3068ZM4.33333 4.3335H2.38666C3.0259 3.21831 4.04986 2.37449 5.26666 1.96016C4.86666 2.70016 4.56666 3.50016 4.33333 4.3335ZM2.38666 9.66683H4.33333C4.56666 10.5002 4.86666 11.3002 5.26666 12.0402C4.05241 11.6213 3.02989 10.7786 2.38666 9.66683ZM1.84 8.3335C1.73333 7.90683 1.66666 7.46016 1.66666 7.00016C1.66666 6.54016 1.73333 6.0935 1.84 5.66683H4.09333C4.04 6.10683 4 6.54683 4 7.00016C4 7.4535 4.04 7.8935 4.09333 8.3335H1.84ZM7 1.68683C7.55333 2.48683 8 3.38016 8.27333 4.3335H5.72666C6 3.38016 6.44666 2.48683 7 1.68683ZM11.6133 4.3335H9.64666C9.43801 3.5078 9.12904 2.71076 8.72666 1.96016C9.95333 2.38016 10.9733 3.22683 11.6133 4.3335ZM7 0.333496C3.31333 0.333496 0.333328 3.3335 0.333328 7.00016C0.333328 8.76827 1.03571 10.464 2.28595 11.7142C2.90501 12.3333 3.63994 12.8243 4.44877 13.1594C5.25761 13.4944 6.12452 13.6668 7 13.6668C8.76811 13.6668 10.4638 12.9645 11.714 11.7142C12.9643 10.464 13.6667 8.76827 13.6667 7.00016C13.6667 6.12468 13.4942 5.25778 13.1592 4.44894C12.8242 3.6401 12.3331 2.90517 11.714 2.28612C11.095 1.66706 10.3601 1.176 9.55122 0.840966C8.74238 0.505935 7.87547 0.333496 7 0.333496Z" fill="#D03090"/>
</svg>
